<?xml version="1.0"?>
<svg width="24" height="24" xmlns="http://www.w3.org/2000/svg" xmlns:svg="http://www.w3.org/2000/svg">
 <g>
  <title>Layer 1</title>
  <g id="Guides">
   <g id="_x32_0_px_2_"/>
   <g id="_x32_0px"/>
   <g id="_x34_0px"/>
   <g id="_x34_4_px"/>
   <g id="_x34_8px">
    <g id="_x31_6px"/>
    <g id="square_4px">
     <g id="_x32_8_px">
      <g id="square_4px_2_"/>
      <g id="square_4px_3_"/>
      <g id="square_4px_1_"/>
      <g id="_x32_4_px_2_"/>
      <g id="_x31_2_px"/>
     </g>
    </g>
   </g>
   <g id="Icons"/>
   <g id="_x32_0_px"/>
   <g id="square_6px">
    <g id="_x31_2_PX"/>
   </g>
   <g id="_x33_6_px">
    <g id="_x33_2_px">
     <g id="_x32_8_px_1_">
      <g id="square_6px_1_"/>
      <g id="_x32_0_px_1_">
       <g id="_x31_2_PX_2_"/>
       <g id="_x34_8_px">
        <g id="_x32_4_px"/>
        <g id="_x32_4_px_1_"/>
       </g>
      </g>
     </g>
    </g>
   </g>
   <g id="_x32_0_px_3_"/>
   <g id="_x32_0_px_4_"/>
   <g id="New_Symbol_8">
    <g id="_x32_4_px_3_"/>
   </g>
  </g>
  <g id="Artboard"/>
  <g id="Free_Icons">
   <g id="svg_1">
    <polyline id="svg_2" fill="none" stroke="#007f6e" stroke-linecap="round" stroke-linejoin="round" stroke-miterlimit="10" points="19.5,19     19.5,23.5 4.5,23.5 4.5,7.5 19.5,7.5 19.5,11.5   "/>
    <polyline id="svg_3" fill="none" stroke="#007f6e" stroke-linecap="round" stroke-linejoin="round" stroke-miterlimit="10" points="4.5,7.5     0.5,2.5 0.5,0.5 23.5,0.5 23.5,2.5 19.5,7.5   "/>
    <polygon id="svg_4" fill="none" stroke="#007f6e" stroke-linecap="round" stroke-linejoin="round" stroke-miterlimit="10" points="17.5,19     12,22 6.5,19 6.5,12.5 12,9 17.5,12.5 12,15.5   "/>
    <polygon id="svg_5" fill="none" stroke="#007f6e" stroke-linecap="round" stroke-linejoin="round" stroke-miterlimit="10" points="16.5,15.5     23.5,12.5 23.5,18.5   "/>
    <polyline id="svg_6" fill="none" stroke="#007f6e" stroke-linecap="round" stroke-linejoin="round" stroke-miterlimit="10" points="6.5,12.5     12,15.5 12,22   "/>
    <polyline id="svg_7" fill="none" stroke="#007f6e" stroke-linecap="round" stroke-linejoin="round" stroke-miterlimit="10" points="6.5,19     12,15.5 12,9   "/>
    <line id="svg_8" fill="none" stroke="#007f6e" stroke-linecap="round" stroke-linejoin="round" stroke-miterlimit="10" y2="2.5" x2="23.5" y1="2.5" x1="0.5"/>
   </g>
  </g>
 </g>
</svg>