<?xml version="1.0"?>
<svg width="593.283" height="593.282" xmlns="http://www.w3.org/2000/svg" xmlns:svg="http://www.w3.org/2000/svg">
 <g>
  <title>Layer 1</title>
  <g id="svg_1">
   <g id="svg_2">
    <path fill="#007f6e" id="svg_3" d="m101.153,341.447c11.73,11.729 23.46,23.46 35.19,35.189c1.037,2.759 3.46,4.941 7.299,4.941l58.748,0c2.685,3.063 5.39,6.107 8.058,9.188c12.472,14.374 30.269,30.237 37.275,48.112c0.302,0.771 0.702,1.424 1.138,2.02l0,143.367c0,12.023 18.646,12.023 18.646,0l0,-199.1c2.073,2.064 4.145,4.129 6.214,6.193l0,192.903c0,12.024 18.646,12.024 18.646,0l0,-173.388c0.057,-0.249 0.159,-0.469 0.225,-0.714c2.125,2.117 4.247,4.235 6.373,6.353c-0.384,0.951 -0.587,1.918 -0.611,2.877c-0.323,0.946 -0.547,1.979 -0.547,3.157l0,161.72c0,12.023 18.646,12.023 18.646,0l0,-150.328c2.235,2.228 4.472,4.455 6.707,6.684l0,143.938c0,10.522 16.32,10.522 16.32,0l0,-116.758c17.984,-17.234 36.214,-34.207 54.696,-50.91c1.225,-1.106 1.926,-2.317 2.289,-3.554c0.706,-1.146 1.154,-2.534 1.154,-4.219l0,-32.399l48.03,-48.271c0.31,0.032 0.6,0.094 0.93,0.094l54.562,0c4.826,2.072 11.738,-0.285 11.738,-7.14l0,-167.28c0,-10.522 -16.32,-10.522 -16.32,0l0,158.1l-34.766,0l16.83,-16.916c2.745,-2.762 2.889,-6.079 1.615,-8.788l0,-52.84c0,-10.522 -16.32,-10.522 -16.32,0l0,53.265c-22.101,22.212 -44.198,44.423 -66.3,66.635l0,-34.378c11.873,-11.877 23.746,-23.75 35.623,-35.623c2.591,-2.591 2.848,-5.659 1.808,-8.266c-0.103,-0.792 -0.335,-1.562 -0.71,-2.301l0,-40.894c0.277,-0.216 0.559,-0.404 0.828,-0.669c11.501,-11.383 22.999,-22.767 34.5,-34.15c3.007,-0.914 5.476,-3.395 5.476,-7.479l0,-105.06c0,-10.522 -16.32,-10.522 -16.32,0l0,100.311c-8.16,8.079 -16.319,16.157 -24.479,24.231l0,-92.922c0,-10.522 -16.32,-10.522 -16.32,0l0,145.244c-5.247,-3.452 -10.351,-7.112 -15.3,-10.992l0,-83.252c0,-10.522 -16.32,-10.522 -16.32,0l0,87.72c0,3.978 2.334,6.45 5.239,7.417c7.462,5.863 15.145,11.383 23.166,16.417l-17.186,17.189l0,-9.404c0,-10.522 -16.319,-10.522 -16.319,0l0,25.725c-4.525,4.524 -9.05,9.05 -13.574,13.574l0,-1.363c0,-1.117 -0.204,-2.101 -0.498,-3.011c-0.379,-1.432 -1.122,-2.855 -2.428,-4.165c-9.384,-9.409 -18.768,-18.817 -28.151,-28.226l0,-36.446c10.407,-10.959 20.918,-21.82 31.538,-32.571c1.171,-1.188 1.893,-2.464 2.305,-3.758c0.682,-1.244 1.114,-2.713 1.114,-4.472l0,-146.055c0,-12.024 -18.646,-12.024 -18.646,0l0,143.196c-5.463,5.544 -10.906,11.114 -16.316,16.716l0,-103.975c0,-12.023 -18.646,-12.023 -18.646,0l0,148.671c-2.072,-2.077 -4.145,-4.153 -6.214,-6.23l0,-182.062c0,-12.024 -18.645,-12.024 -18.645,0l0,184.122c0,2.22 0.64,4.023 1.677,5.422c0.351,1.514 1.11,3.015 2.485,4.398l20.695,20.756l0,58.511c-8.552,7.896 -17.119,15.766 -25.638,23.697l0,-31.208c0,-0.837 -0.106,-1.6 -0.273,-2.317c0.991,-11.195 -3.855,-21.506 -13.497,-28.079c-3.538,-2.411 -7.263,-4.3 -11.09,-6.034l0,-80.927c4.651,-4.712 9.303,-9.429 13.954,-14.141c1.272,-1.289 1.95,-2.697 2.219,-4.108c2.697,-1.069 4.806,-3.464 4.806,-7.238l0,-150.961c0,-10.522 -16.32,-10.522 -16.32,0l0,149.156c-0.771,0.392 -1.526,0.885 -2.24,1.612c-0.804,0.816 -1.608,1.632 -2.412,2.444l0,-144.526c0,-12.024 -18.646,-12.024 -18.646,0l0,163.428c-2.848,2.889 -5.696,5.773 -8.547,8.662l0,-172.869c0,-12.024 -18.646,-12.024 -18.646,0l0,240.059c0,2.652 0.938,4.684 2.354,6.165c5.879,7.988 13.974,10.959 22.982,14.676c0.559,0.232 1.188,0.473 1.856,0.726l0,19.857c-11.049,-11.008 -22.097,-22.016 -33.146,-33.027c-0.795,-0.796 -1.644,-1.33 -2.505,-1.722c-0.49,-3.599 -0.481,-7.218 -0.114,-10.856c0.061,-0.601 0.016,-1.184 -0.094,-1.755l0,-221.63c0,-10.522 -16.32,-10.522 -16.32,0l0,222.36c0,0.354 0.062,0.665 0.098,1c0,0.012 -0.004,0.02 -0.004,0.032c-0.587,5.884 -0.114,11.701 1.057,17.495c0.563,2.786 2.852,4.781 5.487,5.577c0.261,0.351 0.522,0.706 0.861,1.045c14.896,14.843 29.792,29.682 44.688,44.524l0,43.934c-5.659,-7.099 -11.91,-13.818 -17.744,-20.673c-14.92,-17.528 -30.196,-34.75 -45.655,-51.804l0,-226.77c0,-10.522 -16.32,-10.522 -16.32,0l0,165.799c-8.54,-8.409 -17.385,-16.487 -26.52,-24.264l0,-59.862c0.017,-0.016 0.033,-0.024 0.049,-0.041c7.353,-7.658 14.076,-15.847 20.286,-24.459c1.064,-1.481 1.334,-3.264 1.073,-5.006c0,-0.053 0.017,-0.098 0.017,-0.151l0,-103.016c0,-10.522 -16.32,-10.522 -16.32,0l0,101.4c-1.661,2.211 -3.362,4.39 -5.1,6.536l0,-11.037c0,-10.522 -16.32,-10.522 -16.32,0l0,98.94c0,0.143 0.033,0.261 0.041,0.399c-0.216,2.052 0.501,4.203 2.664,6.018c14.096,11.849 27.458,24.464 40.139,37.814l0,40.433c0,2.758 1.134,4.773 2.791,6.087c0.343,0.678 0.755,1.347 1.334,1.987c4.937,5.442 9.829,10.922 14.716,16.405l-39.939,0l-32.98,-32.96l0,-215.922c0,-10.522 -16.32,-10.522 -16.32,0l0,83.611c-6.459,-7.625 -12.921,-15.247 -19.38,-22.873l0,-87.258c0,-10.522 -16.32,-10.522 -16.32,0l0,90.78c0,3.219 1.534,5.443 3.656,6.691c10.682,12.607 21.363,25.21 32.044,37.817l0,108.491c0,0.421 0.065,0.792 0.118,1.18c-0.359,2.2 0.208,4.57 2.273,6.63zm265.726,36.173c0.534,-1.146 0.845,-2.48 0.845,-4.022l0,-24.496c4.524,-4.525 9.049,-9.05 13.574,-13.574l0,71.049c-14.097,12.758 -28.014,25.712 -41.82,38.78l0,-6.39c0.604,-2.374 0.106,-5.018 -2.166,-7.282c-4.651,-4.635 -9.299,-9.266 -13.95,-13.9c13.231,-12.697 26.851,-24.962 40.935,-36.716c1.285,-1.07 2.097,-2.241 2.582,-3.449zm-58.789,12.371c7.928,-7.32 15.855,-14.644 23.782,-21.963c0.845,-0.779 1.429,-1.611 1.894,-2.456c1.729,-1.502 2.885,-3.746 2.885,-6.732l0,-43.183c4.145,4.153 8.286,8.312 12.432,12.465l0,41.497c-13.37,11.232 -26.345,22.901 -38.948,34.979c-2.844,-2.836 -5.691,-5.672 -8.535,-8.503c2.076,-2.077 4.296,-4.076 6.49,-6.104zm-40.583,-57.83c4.272,3.019 7.152,6.813 6.234,11.722c-0.253,1.347 -0.212,2.595 0.012,3.749c-0.004,0.114 -0.033,0.213 -0.033,0.327l0,20.359c-2.073,-2.064 -4.146,-4.13 -6.214,-6.194l0,-29.963l0.001,0zm-27.189,-33.146l0,-40.845c2.848,-2.888 5.695,-5.773 8.547,-8.662l0,54.843c-3.431,-1.399 -6.609,-3.076 -8.547,-5.336z"/>
    <path fill="#007f6e" id="svg_4" d="m505.245,3.982c-2.134,-2.122 -4.818,-3.207 -7.536,-3.064c-1.355,-0.608 -2.824,-0.918 -4.378,-0.918l-393.377,0c-1.555,0 -3.023,0.306 -4.378,0.918c-2.734,-0.147 -5.402,0.942 -7.536,3.06l-62.71,62.069c-3.235,3.203 -4.006,7.593 -2.072,11.575l0,295.555c0,0.816 0.094,1.633 0.29,2.485c0.069,2.55 1.126,4.916 3.064,6.866l82.894,83.053c1.856,2.941 4.896,4.554 8.576,4.554l81.053,0c6.756,0 10.294,-5.32 10.294,-10.576c0,-5.251 -3.538,-10.571 -10.294,-10.571l-76.345,0l-78.39,-78.565l0,-293.503l56.357,-55.778l391.77,0l56.353,55.778l0,293.502l-78.386,78.573l-76.349,0c-6.757,0 -10.29,5.32 -10.29,10.571c0,5.255 3.533,10.575 10.29,10.575l81.053,0c3.562,0 6.532,-1.518 8.479,-4.423l82.996,-83.191c1.938,-1.946 2.986,-4.312 3.06,-6.862c0.195,-0.853 0.29,-1.669 0.29,-2.484l0,-295.555c1.938,-3.982 1.162,-8.372 -2.073,-11.575l-62.705,-62.069z"/>
   </g>
  </g>
  <g id="svg_5"/>
  <g id="svg_6"/>
  <g id="svg_7"/>
  <g id="svg_8"/>
  <g id="svg_9"/>
  <g id="svg_10"/>
  <g id="svg_11"/>
  <g id="svg_12"/>
  <g id="svg_13"/>
  <g id="svg_14"/>
  <g id="svg_15"/>
  <g id="svg_16"/>
  <g id="svg_17"/>
  <g id="svg_18"/>
  <g id="svg_19"/>
 </g>
</svg>